<?xml version="1.0" encoding="UTF-8" standalone="no"?>
<!-- Created with Inkscape (http://www.inkscape.org/) -->

<svg
   xmlns:dc="http://purl.org/dc/elements/1.1/"
   xmlns:cc="http://creativecommons.org/ns#"
   xmlns:rdf="http://www.w3.org/1999/02/22-rdf-syntax-ns#"
   xmlns:svg="http://www.w3.org/2000/svg"
   xmlns="http://www.w3.org/2000/svg"
   version="1.1"
   width="1575"
   height="639.5"
   id="svg2"
   xml:space="preserve"><metadata
     id="metadata8"><rdf:RDF><cc:Work
         rdf:about=""><dc:format>image/svg+xml</dc:format><dc:type
           rdf:resource="http://purl.org/dc/dcmitype/StillImage" /><dc:title></dc:title></cc:Work></rdf:RDF></metadata><defs
     id="defs6"><clipPath
       id="clipPath16"><path
         d="m 0,1417.32 1417.32,0 L 1417.32,0 0,0 0,1417.32 z"
         id="path18" /></clipPath></defs><g
     transform="matrix(1.25,0,0,-1.25,0,639.50006)"
     id="g10"><g
       id="g12"><g
         clip-path="url(#clipPath16)"
         id="g14"><g
           transform="translate(716.70829,361.0751)"
           id="g20"><path
             d="M 0,0 C 23.154,0 41.867,18.761 41.867,41.862 41.867,65.003 23.154,83.74 0,83.74 -23.115,83.74 -41.873,65.003 -41.873,41.862 -41.873,18.761 -23.115,0 0,0 m 404.734,-192.745 c -28.421,0.039 -51.463,23.064 -51.5,51.497 0.037,28.432 23.079,51.46 51.5,51.514 28.434,-0.054 51.464,-23.082 51.51,-51.514 -0.046,-28.433 -23.076,-51.458 -51.51,-51.497 m -814.931,37.346 c -23.395,-23.352 -55.309,-37.669 -90.954,-37.669 -35.643,0 -67.566,14.317 -90.952,37.669 -23.353,23.395 -37.668,55.3 -37.668,90.944 0,35.628 14.315,67.549 37.668,90.959 23.386,23.333 55.309,37.643 90.952,37.67 35.645,-0.027 67.559,-14.337 90.954,-37.67 23.359,-23.41 37.672,-55.331 37.672,-90.959 0,-35.644 -14.313,-67.549 -37.672,-90.944 m 814.931,144.417 c -0.747,0 -1.502,-0.042 -2.257,-0.062 l 0,0.375 -434.957,0 -78.7,0 0,-128.19 c -0.045,-29.186 -23.611,-52.78 -52.791,-52.822 -29.143,0.042 -52.737,23.636 -52.813,52.822 l 0,128.19 -84.058,0 c -23.671,88.461 -104.357,153.564 -200.309,153.6 -114.548,-0.036 -207.367,-92.839 -207.367,-207.386 0,-114.534 92.819,-207.356 207.367,-207.399 105.387,0.043 192.34,78.594 205.622,180.318 l 0,-47.323 c 0.038,-72.724 58.878,-131.56 131.558,-131.602 71.821,0.042 130.105,57.572 131.491,129.055 l 0,-127.593 78.905,0 0,179.41 96.7,0 0,-181.506 78.947,0 0,181.506 63.087,0 c -6.863,-15.85 -10.666,-33.302 -10.666,-51.659 0.034,-71.961 58.282,-130.247 130.241,-130.247 71.971,0 130.247,58.286 130.247,130.247 0,71.958 -58.276,130.24 -130.247,130.266"
             id="path22"
             style="fill:#2c2d84;fill-opacity:1;fill-rule:nonzero;stroke:none" /></g><g
           transform="translate(294.26099,130.265)"
           id="g24"><path
             d="m 0,0 c -0.359,112.089 -89.529,203.233 -200.861,206.684 -4.166,-12.648 -6.463,-26.184 -6.463,-40.329 0,-13.442 2.096,-26.347 5.904,-38.452 33.229,-1.537 62.889,-15.491 85.008,-37.543 23.315,-23.391 37.668,-55.305 37.668,-90.957 l 0.04,0 0,-40.404 2.258,0 c 27.047,0.316 52.856,5.78 76.446,15.462 L 0,0 z"
             id="path26"
             style="fill:#e10714;fill-opacity:1;fill-rule:nonzero;stroke:none" /></g><g
           transform="translate(226.57939,55.296297)"
           id="g28"
           style="fill:#e10714;fill-opacity:1"><path
             d="m 0,0 0,-37.202 10.982,0 c 5.634,0 9.559,2.775 11.775,8.326 1.193,3.051 1.828,6.666 1.828,10.865 0,5.788 -0.914,10.225 -2.743,13.363 C 20.023,-1.56 16.416,0 10.982,0 L 0,0 z m 21.808,8.646 c 4.001,-1.321 7.255,-3.741 9.713,-7.232 1.983,-2.814 3.33,-5.907 4.043,-9.2 0.758,-3.288 1.11,-6.462 1.11,-9.439 0,-7.565 -1.546,-13.954 -4.556,-19.224 -4.127,-7.093 -10.505,-10.624 -19.115,-10.624 l -24.54,0 0,56.935 24.54,0 C 16.534,9.823 19.47,9.427 21.808,8.646"
             id="path30"
             style="fill:#e10714;fill-opacity:1;fill-rule:nonzero;stroke:none" /></g><path
           d="m 281.45619,8.2226967 -11.815,0 0,56.9360003 11.815,0 0,-56.9360003 z"
           id="path32"
           style="fill:#e10714;fill-opacity:1;fill-rule:nonzero;stroke:none" /><g
           transform="translate(299.57399,25.787497)"
           id="g34"
           style="fill:#e10714;fill-opacity:1"><path
             d="m 0,0 c 0.359,-2.575 1.109,-4.521 2.18,-5.829 1.945,-2.339 5.353,-3.491 10.114,-3.491 2.889,0 5.228,0.28 6.976,0.917 3.412,1.188 5.114,3.367 5.114,6.581 0,1.901 -0.83,3.369 -2.497,4.396 -1.665,0.99 -4.283,1.867 -7.93,2.659 l -6.145,1.35 c -6.07,1.347 -10.231,2.775 -12.494,4.355 -3.842,2.62 -5.746,6.745 -5.746,12.335 0,5.107 1.861,9.32 5.624,12.68 3.736,3.421 9.283,5.082 16.541,5.082 6.065,0 11.259,-1.579 15.543,-4.754 4.278,-3.177 6.54,-7.819 6.78,-13.837 l -11.46,0 c -0.198,3.41 -1.748,5.823 -4.6,7.294 -1.904,0.945 -4.278,1.423 -7.097,1.423 -3.13,0 -5.632,-0.634 -7.533,-1.859 -1.863,-1.225 -2.776,-2.968 -2.776,-5.192 0,-2.025 0.913,-3.536 2.776,-4.524 1.151,-0.67 3.685,-1.465 7.533,-2.379 l 9.99,-2.337 c 4.403,-1.032 7.695,-2.422 9.878,-4.167 3.37,-2.651 5.073,-6.542 5.073,-11.62 0,-5.188 -2.024,-9.518 -6.029,-12.958 -4.003,-3.452 -9.714,-5.155 -17.049,-5.155 -7.495,0 -13.402,1.703 -17.686,5.07 -4.32,3.378 -6.419,8.052 -6.419,13.96 L 0,0 z"
             id="path36"
             style="fill:#e10714;fill-opacity:1;fill-rule:nonzero;stroke:none" /></g><g
           transform="translate(383.59159,65.158597)"
           id="g38"
           style="fill:#e10714;fill-opacity:1"><path
             d="m 0,0 0,-10.066 -17.051,0 0,-46.872 -11.971,0 0,46.872 -17.132,0 0,10.066 L 0,0 z"
             id="path40"
             style="fill:#e10714;fill-opacity:1;fill-rule:nonzero;stroke:none" /></g><g
           transform="translate(400.84009,55.296297)"
           id="g42"
           style="fill:#e10714;fill-opacity:1"><path
             d="m 0,0 0,-15.317 12.802,0 c 2.539,0 4.483,0.31 5.751,0.913 2.22,1.106 3.372,3.257 3.372,6.423 0,3.454 -1.112,5.791 -3.251,6.982 C 17.445,-0.328 15.576,0 13.119,0 L 0,0 z m 24.618,8.397 c 2.106,-0.877 3.854,-2.221 5.314,-3.966 1.191,-1.426 2.181,-3.05 2.857,-4.799 0.716,-1.745 1.072,-3.763 1.072,-5.984 0,-2.696 -0.675,-5.353 -2.062,-7.973 -1.349,-2.613 -3.613,-4.479 -6.742,-5.548 2.617,-1.072 4.482,-2.535 5.59,-4.476 1.07,-2.003 1.627,-4.922 1.627,-8.923 l 0,-3.859 c 0,-2.569 0.117,-4.346 0.314,-5.263 0.32,-1.471 1.033,-2.535 2.187,-3.253 l 0,-1.426 -13.131,0 c -0.354,1.261 -0.633,2.302 -0.791,3.05 -0.278,1.592 -0.474,3.248 -0.474,4.919 l -0.087,5.272 c -0.03,3.646 -0.67,6.071 -1.855,7.254 -1.232,1.227 -3.498,1.827 -6.819,1.827 l -11.618,0 0,-22.322 -11.619,0 0,56.935 27.243,0 c 3.879,-0.073 6.895,-0.554 8.994,-1.465"
             id="path44"
             style="fill:#e10714;fill-opacity:1;fill-rule:nonzero;stroke:none" /></g><path
           d="m 455.35819,8.2226967 -11.815,0 0,56.9360003 11.815,0 0,-56.9360003 z"
           id="path46"
           style="fill:#e10714;fill-opacity:1;fill-rule:nonzero;stroke:none" /><g
           transform="translate(506.30689,65.158597)"
           id="g48"
           style="fill:#e10714;fill-opacity:1"><path
             d="m 0,0 0,-10.066 -17.052,0 0,-46.872 -11.97,0 0,46.872 -17.128,0 L -46.15,0 0,0 z"
             id="path50"
             style="fill:#e10714;fill-opacity:1;fill-rule:nonzero;stroke:none" /></g><g
           transform="translate(546.70879,21.944697)"
           id="g52"
           style="fill:#e10714;fill-opacity:1"><path
             d="m 0,0 c 2.777,3.443 4.162,8.403 4.162,14.822 0,6.389 -1.385,11.34 -4.162,14.834 -2.776,3.491 -6.504,5.235 -11.218,5.235 -4.718,0 -8.487,-1.744 -11.306,-5.235 -2.815,-3.451 -4.201,-8.408 -4.201,-14.834 0,-6.419 1.386,-11.379 4.201,-14.822 2.819,-3.491 6.588,-5.233 11.306,-5.233 4.714,0 8.442,1.742 11.218,5.233 m 7.414,-8.646 c -4.281,-4.436 -10.506,-6.66 -18.632,-6.66 -8.168,0 -14.397,2.224 -18.677,6.66 -5.788,5.426 -8.642,13.241 -8.642,23.468 0,10.432 2.854,18.281 8.642,23.478 4.28,4.439 10.509,6.654 18.677,6.654 8.126,0 14.351,-2.215 18.632,-6.654 5.751,-5.197 8.642,-13.046 8.642,-23.478 0,-10.227 -2.891,-18.042 -8.642,-23.468"
             id="path54"
             style="fill:#e10714;fill-opacity:1;fill-rule:nonzero;stroke:none" /></g><g
           transform="translate(628.40599,65.158597)"
           id="g56"
           style="fill:#e10714;fill-opacity:1"><path
             d="m 0,0 17.125,0 0,-56.938 -11.083,0 0,38.502 c 0,1.153 0.037,2.697 0.077,4.68 l 0,4.601 -10.797,-47.783 -11.538,0 -10.744,47.783 c 0,-1.075 0.038,-2.62 0.038,-4.601 0.04,-1.983 0.04,-3.527 0.04,-4.68 l 0,-38.502 -11.081,0 0,56.938 17.307,0 10.388,-44.767 L 0,0 z"
             id="path58"
             style="fill:#e10714;fill-opacity:1;fill-rule:nonzero;stroke:none" /></g><g
           transform="translate(697.07939,55.092197)"
           id="g60"
           style="fill:#e10714;fill-opacity:1"><path
             d="m 0,0 -30.138,0 0,-12.098 27.682,0 0,-9.874 -27.682,0 0,-14.667 31.524,0 0,-10.233 -43.135,0 0,56.938 L 0,10.066 0,0 z"
             id="path62"
             style="fill:#e10714;fill-opacity:1;fill-rule:nonzero;stroke:none" /></g><g
           transform="translate(747.55199,65.158597)"
           id="g64"
           style="fill:#e10714;fill-opacity:1"><path
             d="m 0,0 0,-10.066 -17.046,0 0,-46.872 -11.975,0 0,46.872 -17.129,0 L -46.15,0 0,0 z"
             id="path66"
             style="fill:#e10714;fill-opacity:1;fill-rule:nonzero;stroke:none" /></g><g
           transform="translate(764.83909,55.296297)"
           id="g68"
           style="fill:#e10714;fill-opacity:1"><path
             d="m 0,0 0,-15.317 12.811,0 c 2.529,0 4.436,0.31 5.71,0.913 2.26,1.106 3.364,3.257 3.364,6.423 0,3.454 -1.068,5.791 -3.251,6.982 C 17.405,-0.328 15.584,0 13.128,0 L 0,0 z m 24.583,8.397 c 2.105,-0.877 3.891,-2.221 5.316,-3.966 1.228,-1.426 2.179,-3.05 2.892,-4.799 0.713,-1.745 1.024,-3.763 1.024,-5.984 0,-2.696 -0.668,-5.353 -2.014,-7.973 -1.393,-2.613 -3.655,-4.479 -6.78,-5.548 2.61,-1.072 4.479,-2.535 5.585,-4.476 1.076,-2.003 1.63,-4.922 1.63,-8.923 l 0,-3.859 c 0,-2.569 0.114,-4.346 0.317,-5.263 0.323,-1.471 1.064,-2.535 2.224,-3.253 l 0,-1.426 -13.128,0 c -0.395,1.261 -0.628,2.302 -0.795,3.05 -0.311,1.592 -0.475,3.248 -0.512,4.919 l -0.073,5.272 c -0.057,3.646 -0.685,6.071 -1.873,7.254 -1.225,1.227 -3.492,1.827 -6.773,1.827 l -11.623,0 0,-22.322 -11.656,0 0,56.935 27.24,0 c 3.932,-0.073 6.897,-0.554 8.999,-1.465"
             id="path70"
             style="fill:#e10714;fill-opacity:1;fill-rule:nonzero;stroke:none" /></g><g
           transform="translate(844.88989,21.944697)"
           id="g72"
           style="fill:#e10714;fill-opacity:1"><path
             d="m 0,0 c 2.778,3.443 4.164,8.403 4.164,14.822 0,6.389 -1.386,11.34 -4.164,14.834 -2.733,3.491 -6.502,5.235 -11.221,5.235 -4.719,0 -8.482,-1.744 -11.255,-5.235 -2.823,-3.451 -4.241,-8.408 -4.241,-14.834 0,-6.419 1.418,-11.379 4.241,-14.822 2.773,-3.491 6.536,-5.233 11.255,-5.233 4.719,0 8.488,1.742 11.221,5.233 m 7.452,-8.646 c -4.311,-4.436 -10.542,-6.66 -18.673,-6.66 -8.126,0 -14.349,2.224 -18.633,6.66 -5.783,5.426 -8.686,13.241 -8.686,23.468 0,10.432 2.903,18.281 8.686,23.478 4.284,4.439 10.507,6.654 18.633,6.654 8.131,0 14.362,-2.215 18.673,-6.654 5.755,-5.197 8.612,-13.046 8.612,-23.478 0,-10.227 -2.857,-18.042 -8.612,-23.468"
             id="path74"
             style="fill:#e10714;fill-opacity:1;fill-rule:nonzero;stroke:none" /></g><g
           transform="translate(897.62719,53.386097)"
           id="g76"
           style="fill:#e10714;fill-opacity:1"><path
             d="m 0,0 c -1.511,1.265 -3.647,1.904 -6.344,1.904 l -10.706,0 0,-16.777 10.706,0 c 2.697,0 4.833,0.682 6.344,2.062 1.505,1.35 2.261,3.489 2.261,6.465 C 2.261,-3.369 1.505,-1.268 0,0 m 9.076,-20.498 c -3.325,-2.783 -8.092,-4.21 -14.27,-4.21 l -11.856,0 0,-20.455 -11.859,0 0,56.935 24.467,0 c 5.625,0 10.151,-1.464 13.481,-4.402 3.37,-2.931 5.033,-7.455 5.033,-13.642 0,-6.694 -1.663,-11.456 -4.996,-14.226"
             id="path78"
             style="fill:#e10714;fill-opacity:1;fill-rule:nonzero;stroke:none" /></g><g
           transform="translate(956.07349,21.944697)"
           id="g80"
           style="fill:#e10714;fill-opacity:1"><path
             d="m 0,0 c 2.772,3.443 4.153,8.403 4.153,14.822 0,6.389 -1.381,11.34 -4.153,14.834 -2.772,3.491 -6.508,5.235 -11.227,5.235 -4.718,0 -8.487,-1.744 -11.299,-5.235 -2.773,-3.451 -4.203,-8.408 -4.203,-14.834 0,-6.419 1.43,-11.379 4.203,-14.822 2.812,-3.491 6.581,-5.233 11.299,-5.233 4.719,0 8.455,1.742 11.227,5.233 m 7.446,-8.646 c -4.32,-4.436 -10.542,-6.66 -18.673,-6.66 -8.125,0 -14.349,2.224 -18.678,6.66 -5.749,5.426 -8.641,13.241 -8.641,23.468 0,10.432 2.892,18.281 8.641,23.478 4.329,4.439 10.553,6.654 18.678,6.654 8.131,0 14.353,-2.215 18.673,-6.654 5.755,-5.197 8.607,-13.046 8.607,-23.478 0,-10.227 -2.852,-18.042 -8.607,-23.468"
             id="path82"
             style="fill:#e10714;fill-opacity:1;fill-rule:nonzero;stroke:none" /></g><g
           transform="translate(979.62429,65.158597)"
           id="g84"
           style="fill:#e10714;fill-opacity:1"><path
             d="m 0,0 11.889,0 0,-46.705 28.436,0 0,-10.233 L 0,-56.938 0,0 z"
             id="path86"
             style="fill:#e10714;fill-opacity:1;fill-rule:nonzero;stroke:none" /></g><path
           d="m 1037.2332,8.2226967 -11.821,0 0,56.9360003 11.821,0 0,-56.9360003 z"
           id="path88"
           style="fill:#e10714;fill-opacity:1;fill-rule:nonzero;stroke:none" /><g
           transform="translate(1088.177,65.158597)"
           id="g90"
           style="fill:#e10714;fill-opacity:1"><path
             d="m 0,0 0,-10.066 -17.044,0 0,-46.872 -11.974,0 0,46.872 -17.122,0 L -46.14,0 0,0 z"
             id="path92"
             style="fill:#e10714;fill-opacity:1;fill-rule:nonzero;stroke:none" /></g><g
           transform="translate(1103.2112,29.753297)"
           id="g94"
           style="fill:#e10714;fill-opacity:1"><path
             d="M 0,0 14.587,0 7.413,22.402 0,0 z m 0.792,35.405 13.439,0 20.181,-56.938 -12.927,0 -3.762,11.693 -20.937,0 -3.893,-11.693 -12.443,0 20.342,56.938 z"
             id="path96"
             style="fill:#e10714;fill-opacity:1;fill-rule:nonzero;stroke:none" /></g><g
           transform="translate(1143.0862,65.158597)"
           id="g98"
           style="fill:#e10714;fill-opacity:1"><path
             d="M 0,0 12.46,0 35.1,-39.688 35.1,0 l 11.062,0 0,-56.938 -11.893,0 -23.195,40.41 0,-40.41 L 0,-56.938 0,0 z"
             id="path100"
             style="fill:#e10714;fill-opacity:1;fill-rule:nonzero;stroke:none" /></g><g
           transform="translate(1235.2805,21.944697)"
           id="g102"
           style="fill:#e10714;fill-opacity:1"><path
             d="m 0,0 c 2.738,3.443 4.125,8.403 4.125,14.822 0,6.389 -1.387,11.34 -4.125,14.834 -2.813,3.491 -6.541,5.235 -11.258,5.235 -4.682,0 -8.484,-1.744 -11.258,-5.235 -2.823,-3.451 -4.21,-8.408 -4.21,-14.834 0,-6.419 1.387,-11.379 4.21,-14.822 2.774,-3.491 6.576,-5.233 11.258,-5.233 4.717,0 8.445,1.742 11.258,5.233 m 7.412,-8.646 c -4.317,-4.436 -10.502,-6.66 -18.67,-6.66 -8.134,0 -14.358,2.224 -18.638,6.66 -5.781,5.426 -8.644,13.241 -8.644,23.468 0,10.432 2.863,18.281 8.644,23.478 4.28,4.439 10.504,6.654 18.638,6.654 8.168,0 14.353,-2.215 18.67,-6.654 5.749,-5.197 8.612,-13.046 8.612,-23.478 0,-10.227 -2.863,-18.042 -8.612,-23.468"
             id="path104"
             style="fill:#e10714;fill-opacity:1;fill-rule:nonzero;stroke:none" /></g></g></g></g></svg>